<svg xmlns="http://www.w3.org/2000/svg" viewBox="0 0 800 332"><g fill="#060F19"><rect x="0" y="2" width="38" height="288"/><polygon points="66,2 161,48 161,114 66,160 66,118 127,88.5 127,73.5 66,44"/><polygon points="66,204 127,174.5 127,146 144,136 161,144 161,200 66,246"/><polygon points="66,290 127,260.5 127,232 144,222 161,230 161,286 66,332"/></g><path fill="#060F19" d="M222.7498526310575 134.0V52.0H261.43045212013135Q281.4423237233922 52.0 281.4423237233922 72.01187160326086V79.08489530259284Q281.4423237233922 83.12547501273778 279.0655121291893 85.97764892578124L274.90609183933424 90.96895327360733L279.8973961871603 95.12837356346242Q283.8191353175951 98.33706921563632 283.8191353175951 104.63561994027401V113.98812839673913Q283.8191353175951 134.0 263.8072637143342 134.0ZM239.86833619933196 118.53452767634738H263.16148150900136Q266.7006517493206 118.53452767634738 266.7006517493206 114.99535743602809V103.0897857223732Q266.7006517493206 99.5506154820539 263.16148150900136 99.5506154820539H239.86833619933196ZM239.86833619933196 84.08514315840127H260.7846699147985Q264.32384015511775 84.08514315840127 264.32384015511775 80.51772071727808V71.00464256397191Q264.32384015511775 67.46547232365262 260.7846699147985 67.46547232365262H239.86833619933196ZM298.57014248613 111.17807528730752V46.05797101449275H314.96975079964903V112.83108653192934Q314.96975079964903 120.26646374688632 322.5863047724185 120.99464783599412V135.194237573596Q298.57014248613 135.194237573596 298.57014248613 111.17807528730752ZM335.4107221962749 114.74108762879303V71.2570990078691H351.8103305097939V115.92949342589448Q351.8103305097939 119.73459702643795 355.6154341103374 119.73459702643795H372.94996178668475V71.2570990078691H389.3495701002038V134.0H354.66963456748186Q335.4107221962749 134.0 335.4107221962749 114.74108762879303ZM405.52666422526045 114.74108762879303V90.51601137907608Q405.52666422526045 71.2570990078691 424.7855765964674 71.2570990078691H440.23485195878624Q459.46551212918934 71.2570990078691 459.46551212918934 90.51601137907608V108.67710633208786H421.9262725387795V115.92949342589448Q421.9262725387795 119.73459702643795 425.73137613932295 119.73459702643795H457.0887005349864V128.6961080799932L449.95645238903984 134.0H424.7855765964674Q405.52666422526045 134.0 405.52666422526045 114.74108762879303ZM421.9262725387795 96.13288255774457H443.0659038156703V89.32760558197464Q443.0659038156703 85.52250198143116 439.26080021512684 85.52250198143116H425.73137613932295Q421.9262725387795 85.52250198143116 421.9262725387795 89.32760558197464ZM475.64260625424595 157.768115942029V71.2570990078691H510.35079398777174Q529.5814541581748 71.2570990078691 529.5814541581748 90.51601137907608V114.74108762879303Q529.5814541581748 134.0 510.35079398777174 134.0H492.0422145677649V157.768115942029ZM492.0422145677649 119.73459702643795H509.37674224411234Q513.1818458446558 119.73459702643795 513.1818458446558 115.92949342589448V89.32760558197464Q513.1818458446558 85.52250198143116 509.37674224411234 85.52250198143116H492.0422145677649ZM545.2831859643909 134.0V79.33333333333333Q549.6861191901608 71.2570990078691 562.1652867413949 71.2570990078691H574.9951442552649L582.1273924012115 76.5609909278759V85.52250198143116H566.553444682688Q562.9667135487432 85.52250198143116 561.6827942779098 87.28178357110508V134.0ZM593.447704724298 60.918875254755434V44.928274668817934H610.4921885614809V60.918875254755434ZM593.77014248613 134.0V71.2570990078691H610.169750799649V134.0ZM627.2831859643909 134.0V71.2570990078691H661.9913736979167Q681.2220338683197 71.2570990078691 681.2220338683197 90.51601137907608V134.0H664.8224255548007V89.32760558197464Q664.8224255548007 85.52250198143116 661.0173219542572 85.52250198143116H643.6827942779099V134.0ZM697.3991279933764 114.74108762879303V52.0H713.7987363068953V71.2570990078691H734.243334430197V85.52250198143116H713.7987363068953V115.92949342589448Q713.7987363068953 119.73459702643795 717.6038399074389 119.73459702643795H735.4317402272984V128.6961080799932L728.2994920813519 134.0H716.6580403645834Q697.3991279933764 134.0 697.3991279933764 114.74108762879303Z M219.18463523975316 238.85839224552763V229.53452767634738H256.0310467263927Q259.57021696671194 229.53452767634738 259.57021696671194 225.9953574360281V217.37740620046424Q259.57021696671194 214.0185060362885 256.6185111667799 213.47005066802535L233.4464114866395 208.7280910326087Q219.18463523975316 205.9606737219769 219.18463523975316 189.64452364271966V183.01187160326086Q219.18463523975316 163.0 239.19650684301405 163.0H266.37017716117526L274.31188894078355 169.14160775447237V178.46547232365262H239.87054124915082Q236.30311880802762 178.46547232365262 236.30311880802762 182.0046425639719V189.77995287024456Q236.30311880802762 193.07651685631794 239.2548246079597 193.71556060348732L262.4269242881001 198.24809128028758Q276.6887005349864 201.19668534873188 276.6887005349864 217.42224704908287V224.9881283967391Q276.6887005349864 245.0 256.67682893172554 245.0H227.1545992201653ZM290.9643453846807 225.74108762879303V163.0H307.36395369819974V182.2570990078691H327.8085518215014V196.52250198143116H307.36395369819974V226.92949342589446Q307.36395369819974 230.73459702643794 311.1690572987432 230.73459702643794H328.99695761860283V239.6961080799932L321.8647094726563 245.0H310.2232577558877Q290.9643453846807 245.0 290.9643453846807 225.74108762879303ZM341.35275118178214 245.0V190.33333333333331Q345.75568440755205 182.2570990078691 358.23485195878624 182.2570990078691H371.0647094726562L378.1969576186028 187.5609909278759V196.52250198143116H362.62300990007924Q359.0362787661345 196.52250198143116 357.75235949530116 198.28178357110508V245.0ZM405.79933604364805 245.0Q386.5121714716372 245.0 386.5121714716372 226.1092729209126Q386.5121714716372 207.21854584182518 405.79933604364805 207.21854584182518H422.1499617866848V200.32760558197464Q422.1499617866848 196.52250198143116 418.34485818614127 196.52250198143116H393.1564870640851V187.5609909278759L400.2887352100317 182.2570990078691H419.3189099298007Q438.54957010020377 182.2570990078691 438.54957010020377 201.51601137907608V245.0ZM402.9117797851562 226.92949342589446Q402.9117797851562 230.73459702643794 406.7168833856997 230.73459702643794H422.1499617866848V219.76276961616847H406.7168833856997Q402.9117797851562 219.76276961616847 402.9117797851562 223.56787321671194ZM454.72666422526044 225.74108762879303V163.0H471.12627253877946V182.2570990078691H491.5708706620811V196.52250198143116H471.12627253877946V226.92949342589446Q471.12627253877946 230.73459702643794 474.93137613932294 230.73459702643794H492.75927645918256V239.6961080799932L485.627028313236 245.0H473.9855765964674Q454.72666422526044 245.0 454.72666422526044 225.74108762879303ZM504.6397077035213 225.74108762879303V201.51601137907608Q504.6397077035213 182.2570990078691 523.8986200747282 182.2570990078691H539.3478954370471Q558.5785556074502 182.2570990078691 558.5785556074502 201.51601137907608V219.67710633208787H521.0393160170403V226.92949342589446Q521.0393160170403 230.73459702643794 524.8444196175838 230.73459702643794H556.2017440132473V239.6961080799932L549.0694958673007 245.0H523.8986200747282Q504.6397077035213 245.0 504.6397077035213 225.74108762879303ZM521.0393160170403 207.13288255774455H542.1789472939312V200.32760558197464Q542.1789472939312 196.52250198143116 538.3738436933877 196.52250198143116H524.8444196175838Q521.0393160170403 196.52250198143116 521.0393160170403 200.32760558197464ZM573.3178992229958 225.74108762879303V201.51601137907608Q573.3178992229958 182.2570990078691 592.5768115942028 182.2570990078691H627.2849993277287V249.50920357082202Q627.2849993277287 268.768115942029 608.0260869565217 268.768115942029H585.8437209861866L578.7114728402399 263.4642240220222V254.50271296846694H607.0802874136662Q610.8853910142096 254.50271296846694 610.8853910142096 250.69760936792346V245.0H592.5768115942028Q573.3178992229958 245.0 573.3178992229958 225.74108762879303ZM589.7175075365149 226.92949342589446Q589.7175075365149 230.73459702643794 593.5226111370583 230.73459702643794H610.8853910142096V196.52250198143116H593.5226111370583Q589.7175075365149 196.52250198143116 589.7175075365149 200.32760558197464ZM643.5984293619791 171.91887525475545V155.92827466881795H660.6429131991621V171.91887525475545ZM643.9208671238111 245.0V182.2570990078691H660.3204754373302V245.0ZM676.4831859643908 225.74108762879303V201.51601137907608Q676.4831859643908 182.2570990078691 695.7420983355978 182.2570990078691H711.1913736979167Q730.4220338683198 182.2570990078691 730.4220338683198 201.51601137907608V219.67710633208787H692.8827942779099V226.92949342589446Q692.8827942779099 230.73459702643794 696.6878978784533 230.73459702643794H728.0452222741169V239.6961080799932L720.9129741281703 245.0H695.7420983355978Q676.4831859643908 245.0 676.4831859643908 225.74108762879303ZM692.8827942779099 207.13288255774455H714.0224255548007V200.32760558197464Q714.0224255548007 196.52250198143116 710.2173219542573 196.52250198143116H696.6878978784533Q692.8827942779099 196.52250198143116 692.8827942779099 200.32760558197464ZM744.4375771342844 239.6961080799932V230.73459702643794H771.8274148692255Q775.84777920488 230.73459702643794 775.84777920488 226.2272068189538Q775.84777920488 221.6009760317595 772.4547950634059 220.99018448539402L759.6550031136776 218.85688582710597Q744.4375771342844 216.2706452742867 744.4375771342844 201.3240777499434Q744.4375771342844 182.2570990078691 763.7247417062954 182.2570990078691H782.1100409024004L789.242289048347 187.5609909278759V196.52250198143116H764.7046252264494Q760.656008689991 196.52250198143116 760.656008689991 201.0298921889153Q760.656008689991 205.83237463909646 764.252590013587 206.3808300073596L777.0523819633153 208.51412866564766Q792.0944629613905 210.9815286387568 792.0944629613905 225.90476905712183Q792.0944629613905 245.0 772.7790461885756 245.0H751.569825280231Z"/></svg>
